<?xml version="1.0" ?><!-- Uploaded to: SVG Repo, www.svgrepo.com, Generator: SVG Repo Mixer Tools -->
<svg width="800px" height="800px" viewBox="0 0 64 64" data-name="Layer 1" id="Layer_1" xmlns="http://www.w3.org/2000/svg"><defs><style>.cls-1{fill:#65c8d0;}.cls-2{fill:#e7685d;}.cls-3{fill:#fcdd7c;}.cls-4{fill:#f4ecce;}</style></defs><path class="cls-1" d="M25,30H18.87l1-1.45-1.66-1.1L16.46,30H11.87l1-1.45-1.66-1.1L9.46,30H8V23.87l1.45,1,1.1-1.66L8,21.46V16.87l1.45,1,1.1-1.66L8,14.46V12h3.13l-1,1.45,1.66,1.1L13.54,12h4.59l-1,1.45,1.66,1.1L20.54,12H24V10H20.54L18.83,7.45l-1.66,1.1,1,1.45H13.54L11.83,7.45l-1.66,1.1,1,1.45H7a1,1,0,0,0-1,1v3.46L3.45,16.17l1.1,1.66,1.45-1v4.59L3.45,23.17l1.1,1.66,1.45-1V31a1,1,0,0,0,1,1H9.46l1.71,2.55,1.66-1.1-1-1.45h4.59l1.71,2.55,1.66-1.1-1-1.45H24v4h2V31A1,1,0,0,0,25,30Z"/><path class="cls-1" d="M59.45,22.17l-1.45,1V18.54l2.55-1.71-1.1-1.66-1.45,1V11a1,1,0,0,0-1-1H53.54L51.83,7.45l-1.66,1.1,1,1.45H46.54L44.83,7.45l-1.66,1.1,1,1.45H40v2h4.13l-1,1.45,1.66,1.1L46.54,12h4.59l-1,1.45,1.66,1.1L53.54,12H56v4.13l-1.45-1-1.1,1.66L56,18.54v4.59l-1.45-1-1.1,1.66L56,25.54V30H52.87l1-1.45-1.66-1.1L50.46,30H45.87l1-1.45-1.66-1.1L43.46,30H39a1,1,0,0,0-1,1v5h2V32h3.46l1.71,2.55,1.66-1.1-1-1.45h4.59l1.71,2.55,1.66-1.1-1-1.45H57a1,1,0,0,0,1-1V25.54l2.55-1.71Z"/><rect class="cls-1" height="22" width="12" x="20" y="40"/><rect class="cls-2" height="22" width="12" x="32" y="40"/><polyline class="cls-3" points="22 40 22 36 28 36 28 40"/><polyline class="cls-3" points="36 40 36 36 42 36 42 40"/><circle class="cls-3" cx="32" cy="11" r="9"/><polygon class="cls-4" points="29 45 27 45 27 43 25 43 25 45 23 45 23 47 25 47 25 49 27 49 27 47 29 47 29 45"/><rect class="cls-1" height="2" width="6" x="35" y="45"/><path class="cls-1" d="M32.53,17.37l-1.86-.74L32.52,12H30a1,1,0,0,1-.79-.39,1,1,0,0,1-.18-.87l1.6-6,1.94.52L31.3,10H34a1,1,0,0,1,.83.44,1,1,0,0,1,.1.93Z"/></svg>