<?xml version="1.0" encoding="iso-8859-1"?>
<!-- Uploaded to: SVG Repo, www.svgrepo.com, Generator: SVG Repo Mixer Tools -->
<svg version="1.1" id="Capa_1" xmlns="http://www.w3.org/2000/svg" xmlns:xlink="http://www.w3.org/1999/xlink" 
	 viewBox="0 0 320 320" xml:space="preserve">
<g id="XMLID_1642_">
	<polygon id="XMLID_1643_" style="fill:#5A8BB0;" points="255,290 265,275 255,260 225,260 225,290 	"/>
	<path id="XMLID_1644_" style="fill:#FFD6A0;" d="M145,230V25c0-13.807-11.193-25-25-25S95,11.193,95,25C95,11.193,83.807,0,70,0
		S45,11.193,45,25v125l20,50v30h40H145z"/>
	<polygon id="XMLID_1645_" style="fill:#FFD6A0;" points="105,260 65,260 65,320 145,320 145,260 	"/>
	<path id="XMLID_1646_" style="fill:#FFC170;" d="M185,230h40v-30l50-40V75c0-13.807-11.193-25-25-25c-1.713,0-3.385,0.173-5,0.501
		V25c0-13.807-11.193-25-25-25s-25,11.193-25,25c0-13.807-11.193-25-25-25s-25,11.193-25,25v205H185z"/>
	<polygon id="XMLID_1647_" style="fill:#FFC170;" points="145,260 145,320 225,320 225,290 225,260 185,260 	"/>
	<rect id="XMLID_1648_" x="65" y="230" style="fill:#78B9EB;" width="40" height="30"/>
	<rect id="XMLID_1649_" x="185" y="230" style="fill:#5A8BB0;" width="40" height="30"/>
	<polygon id="XMLID_1650_" style="fill:#FFFFFF;" points="105,230 105,260 145,260 185,260 185,230 145,230 	"/>
</g>
</svg>