<svg width="64" height="65" viewBox="0 0 64 65" fill="none" xmlns="http://www.w3.org/2000/svg">
<g clip-path="url(#clip0_59_114)">
<path d="M51 58.616L53 55.616L51 52.616H45V58.616H51Z" fill="#5A8BB0"/>
<path d="M29 46.616V5.61603C29 2.85463 26.7614 0.616028 24 0.616028C21.2386 0.616028 19 2.85463 19 5.61603C19 2.85463 16.7614 0.616028 14 0.616028C11.2386 0.616028 9 2.85463 9 5.61603V30.616L13 40.616V46.616H21H29Z" fill="#FFD6A0"/>
<path d="M21 52.616H13V64.616H29V52.616H21Z" fill="#FFD6A0"/>
<path d="M37 46.616H45V40.616L55 32.616V15.616C55 12.8546 52.7614 10.616 50 10.616C49.6574 10.616 49.323 10.6506 49 10.7162V5.61603C49 2.85463 46.7614 0.616028 44 0.616028C41.2386 0.616028 39 2.85463 39 5.61603C39 2.85463 36.7614 0.616028 34 0.616028C31.2386 0.616028 29 2.85463 29 5.61603V46.616H37Z" fill="#FFC170"/>
<path d="M29 52.616V64.616H45V58.616V52.616H37H29Z" fill="#FFC170"/>
<path d="M21 46.616H13V52.616H21V46.616Z" fill="#78B9EB"/>
<path d="M45 46.616H37V52.616H45V46.616Z" fill="#5A8BB0"/>
<path d="M21 46.616V52.616H29H37V46.616H29H21Z" fill="white"/>
</g>
<defs>
<clipPath id="clip0_59_114">
<rect width="64" height="64" fill="white" transform="translate(0 0.616028)"/>
</clipPath>
</defs>
</svg>
